<svg width="74" height="30" viewBox="0 0 74 30" fill="none" xmlns="http://www.w3.org/2000/svg">
    <path d="M13.5282 3.86775C12.661 4.88107 11.2735 5.6803 9.88601 5.56613C9.71257 4.196 10.3919 2.74025 11.1868 1.8411C12.054 0.799239 13.5716 0.0570885 14.8001 0C14.9446 1.42721 14.3809 2.82588 13.5282 3.86775ZM14.7856 5.8373C12.7766 5.72312 11.0567 6.9648 10.1028 6.9648C9.13444 6.9648 7.67468 5.89439 6.08483 5.92293C4.01804 5.95148 2.09577 7.10752 1.04069 8.94862C-1.12728 12.6308 0.477021 18.0828 2.57272 21.0799C3.5989 22.5642 4.82741 24.1912 6.44616 24.1342C7.97819 24.0771 8.58522 23.1494 10.4352 23.1494C12.2997 23.1494 12.8344 24.1342 14.4532 24.1056C16.1298 24.0771 17.1848 22.6213 18.211 21.137C19.3817 19.4529 19.8587 17.8116 19.8876 17.726C19.8587 17.6974 16.6501 16.4843 16.6212 12.8306C16.5923 9.7764 19.1505 8.32065 19.2661 8.23501C17.8208 6.12274 15.5661 5.89439 14.7856 5.8373ZM26.3915 1.69838V23.9486H29.8891V16.3416H34.7309C39.1536 16.3416 42.261 13.3444 42.261 9.00571C42.261 4.66698 39.2114 1.69838 34.8466 1.69838H26.3915ZM29.8891 4.6099H33.9216C36.9567 4.6099 38.6911 6.20837 38.6911 9.01998C38.6911 11.8316 36.9567 13.4443 33.9071 13.4443H29.8891V4.6099ZM48.6493 24.1199C50.8462 24.1199 52.884 23.0209 53.8091 21.2797H53.8813V23.9486H57.1188V12.8735C57.1188 9.66223 54.5173 7.59277 50.5137 7.59277C46.7993 7.59277 44.0532 9.69077 43.952 12.5737H47.1028C47.363 11.2036 48.6493 10.3045 50.4126 10.3045C52.5516 10.3045 53.7512 11.2892 53.7512 13.1018V14.3292L49.3864 14.5861C45.3251 14.8287 43.1282 16.47 43.1282 19.3245C43.1282 22.2074 45.3973 24.1199 48.6493 24.1199ZM49.5887 21.4795C47.7243 21.4795 46.5391 20.5947 46.5391 19.2388C46.5391 17.8402 47.6809 17.0266 49.8633 16.8982L53.7512 16.6556V17.9115C53.7512 19.9952 51.9591 21.4795 49.5887 21.4795ZM61.4403 30C64.8512 30 66.4555 28.7155 67.8575 24.8192L74.0001 7.80685H70.4446L66.3255 20.9515H66.2532L62.1341 7.80685H58.4774L64.4032 24.0057L64.0852 24.9905C63.5505 26.6603 62.6833 27.3026 61.1368 27.3026C60.8622 27.3026 60.3274 27.274 60.1106 27.2455V29.9144C60.313 29.9715 61.1801 30 61.4403 30Z" fill="black"/>
</svg>
