<svg width="8" height="8" viewBox="0 0 8 8" fill="none" xmlns="http://www.w3.org/2000/svg">
<path d="M5.16009 6.77819C6.24494 6.77819 7.12438 5.89875 7.12438 4.8139C7.12438 3.72905 6.24494 2.84961 5.16009 2.84961C4.07524 2.84961 3.1958 3.72905 3.1958 4.8139C3.1958 5.89875 4.07524 6.77819 5.16009 6.77819Z" stroke="#FFC700" stroke-width="0.92437"/>
<path fill-rule="evenodd" clip-rule="evenodd" d="M5.42665 2.05238C4.98914 1.41673 4.25648 1 3.42648 1C2.08637 1 1 2.08637 1 3.42647C1 4.44776 1.63095 5.32168 2.52432 5.67969C2.43464 5.40695 2.38612 5.11552 2.38612 4.81276C2.38612 4.71526 2.39115 4.61894 2.40096 4.52404C2.10768 4.2499 1.92437 3.85959 1.92437 3.42647C1.92437 2.59688 2.59689 1.92437 3.42648 1.92437C3.73997 1.92437 4.03104 2.0204 4.27185 2.18466C4.55046 2.09062 4.8489 2.03965 5.15923 2.03965C5.24945 2.03965 5.33864 2.04396 5.42665 2.05238ZM4.9062 3.68616C4.81719 4.1969 4.4702 4.61904 4.00441 4.81336V4.81369C4.00441 5.1484 4.14673 5.44988 4.37416 5.6609C5.11487 5.34634 5.66705 4.67423 5.81411 3.86116C5.6281 3.73316 5.40273 3.65823 5.15987 3.65823C5.07272 3.65823 4.98783 3.66787 4.9062 3.68616Z" fill="#FFC700"/>
</svg>
