<svg width="18" height="17" viewBox="0 0 18 17" fill="none" xmlns="http://www.w3.org/2000/svg">
    <path fill-rule="evenodd" clip-rule="evenodd" d="M15.8017 6.00199H12.5637V8.34167C12.5637 8.7674 12.2181 9.11299 11.7922 9.11299C11.3662 9.11299 11.0206 8.76765 11.0206 8.34167V6.00199H8.51724C8.09126 6.00199 7.74592 5.6564 7.74592 5.23043C7.74592 4.80446 8.09151 4.45887 8.51724 4.45887H11.0206V3.85513C11.0206 2.65542 10.0448 1.67913 8.84485 1.67913C7.64489 1.67913 6.66909 2.65542 6.66909 3.85513V8.34167C6.66909 8.76765 6.32351 9.11299 5.89753 9.11299C5.47156 9.11299 5.12598 8.7674 5.12598 8.34167V6.00199H1.88772V14.3997C1.88772 15.0579 2.42322 15.5931 3.08112 15.5931H14.6083C15.2665 15.5931 15.8017 15.0579 15.8017 14.3997C15.8017 13.9735 16.1471 13.6284 16.5733 13.6284C16.9995 13.6284 17.3449 13.9735 17.3449 14.3997C17.3449 15.9089 16.1175 17.136 14.6083 17.136H3.08112C1.57201 17.136 0.344849 15.9089 0.344849 14.3997V5.23043C0.344849 4.80422 0.690434 4.45887 1.11641 4.45887H5.12598V3.85513C5.12598 1.80445 6.79416 0.136017 8.84485 0.136017C10.8955 0.136017 12.5637 1.80445 12.5637 3.85513V4.45887H16.5733C16.9993 4.45887 17.3449 4.80446 17.3449 5.23043V11.1251C17.3449 11.5513 16.9995 11.8964 16.5733 11.8964C16.1471 11.8964 15.8017 11.5513 15.8017 11.1251V6.00199Z" fill="#9D9E9E"/>
</svg>
