<svg width="10" height="10" viewBox="0 0 10 10" fill="none" xmlns="http://www.w3.org/2000/svg">
    <g clip-path="url(#clip0)">
        <path d="M3.90529 8.64433C4.10513 8.64433 4.26713 8.48233 4.26713 8.28249C4.26713 8.08265 4.10513 7.92065 3.90529 7.92065C3.70546 7.92065 3.54346 8.08265 3.54346 8.28249C3.54346 8.48233 3.70546 8.64433 3.90529 8.64433Z" stroke="#2BCB4E" stroke-width="0.723671" stroke-linecap="round" stroke-linejoin="round"/>
        <path d="M7.88576 8.64433C8.0856 8.64433 8.2476 8.48233 8.2476 8.28249C8.2476 8.08265 8.0856 7.92065 7.88576 7.92065C7.68593 7.92065 7.52393 8.08265 7.52393 8.28249C7.52393 8.48233 7.68593 8.64433 7.88576 8.64433Z" stroke="#2BCB4E" stroke-width="0.723671" stroke-linecap="round" stroke-linejoin="round"/>
        <path d="M1.01074 1.04565H2.45809L3.4278 5.89064C3.46089 6.05722 3.55152 6.20687 3.68382 6.31337C3.81612 6.41987 3.98167 6.47645 4.15148 6.47319H7.66852C7.83833 6.47645 8.00388 6.41987 8.13618 6.31337C8.26848 6.20687 8.3591 6.05722 8.39219 5.89064L8.97113 2.85483H2.81992" stroke="#2BCB4E" stroke-width="0.723671" stroke-linecap="round" stroke-linejoin="round"/>
    </g>
    <defs>
        <clipPath id="clip0">
            <rect width="8.68406" height="8.68406" fill="white" transform="translate(0.648926 0.684082)"/>
        </clipPath>
    </defs>
</svg>
