<svg width="20" height="17" viewBox="0 0 20 17" fill="none" xmlns="http://www.w3.org/2000/svg">
    <path fill-rule="evenodd" clip-rule="evenodd" d="M0.929796 6.32037H3.71245C4.15227 6.32037 4.51194 6.6832 4.51194 7.12617V7.12641C4.51194 7.56939 4.15227 7.93173 3.71245 7.93173H0.929796C0.489982 7.93173 0.13031 7.56939 0.13031 7.12641V7.12617C0.13031 6.6832 0.489982 6.32037 0.929796 6.32037ZM13.3859 0.136017C9.9772 0.136017 7.21373 2.92062 7.21373 6.3551C7.21373 9.78983 9.9772 12.5742 13.3859 12.5742C13.986 12.5742 14.5657 12.488 15.1141 12.327L17.6393 16.7341C17.8586 17.1171 18.3504 17.2502 18.7315 17.0284C19.1123 16.8072 19.2439 16.3113 19.0241 15.9285L16.5861 11.6742L16.5866 11.6739L16.1234 10.8671C15.9449 10.5553 15.5673 10.4295 15.2392 10.5718C14.9213 10.7095 14.573 10.8171 14.2821 10.8754L14.2826 10.8756C13.9926 10.9339 13.6932 10.964 13.3859 10.964C10.8593 10.964 8.81173 8.90073 8.81173 6.3551C8.81173 3.80947 10.8593 1.74616 13.3859 1.74616C15.9131 1.74616 17.9609 3.80947 17.9609 6.3551C17.9609 7.17984 17.746 7.95286 17.3698 8.62217C17.08 9.13824 17.3829 9.96031 18.0231 9.97076C18.2764 9.97488 18.4957 9.85443 18.6297 9.6378C19.2186 8.68531 19.5589 7.56016 19.5589 6.3551C19.5589 2.92062 16.7952 0.136017 13.3859 0.136017ZM0.934896 10.7406H5.7C6.13957 10.7406 6.49924 11.103 6.49924 11.5462V11.5464C6.49924 11.9894 6.13957 12.3515 5.7 12.3515H0.934896C0.495082 12.3515 0.135653 11.9894 0.135653 11.5464V11.5462C0.135653 11.103 0.495082 10.7406 0.934896 10.7406ZM0.929553 15.1606H12.4293C12.8684 15.1606 13.2286 15.5232 13.2286 15.9664V15.9667C13.2286 16.4096 12.8684 16.7717 12.4293 16.7717H0.929553C0.49071 16.7717 0.13031 16.4096 0.13031 15.9667V15.9664C0.13031 15.5232 0.49071 15.1606 0.929553 15.1606Z" fill="#9D9E9E"/>
</svg>
