<svg width="58" height="69" viewBox="0 0 58 69" fill="none" xmlns="http://www.w3.org/2000/svg">
    <path fill-rule="evenodd" clip-rule="evenodd" d="M20.2851 5.10034C19.0276 5.10034 17.7295 5.18173 16.4719 5.26312C15.1333 5.34451 13.754 5.40555 12.4154 5.40555C11.1376 5.40555 9.83947 5.34451 8.54137 5.28347C7.30413 5.20208 6.04659 5.14104 4.78906 5.14104C4.78906 5.14104 4.78906 5.14104 4.78906 5.16138C4.78906 9.53607 4.95132 13.9514 5.11359 18.3261C5.215 20.9102 5.27585 23.4944 5.31641 26.0785C5.35698 27.9097 5.37726 29.741 5.43811 31.5723L6.00603 48.7658C10.022 45.6119 14.9507 43.1703 19.8389 41.8273L19.636 31.5926C19.636 27.1772 19.7983 22.7415 19.9606 18.3261C20.1228 13.9514 20.2851 9.53607 20.2851 5.16138C20.2851 5.14104 20.2851 5.12069 20.2851 5.10034Z" fill="#2BCB4E"/>
    <path fill-rule="evenodd" clip-rule="evenodd" d="M41.3796 52.4691C42.8197 61.8899 49.2087 57.7391 49.5333 68.279C60.993 59.3669 60.6685 43.0686 45.0102 42.4582C51.0139 40.2607 51.2776 34.8076 50.7908 28.4999C50.446 24.1456 48.4785 6.05677 54.0563 0.624023C36.9782 1.01062 27.9118 26.5669 35.7815 41.0542C17.8718 35.7232 -2.67461 52.347 0.286678 58.4716C7.02056 50.0681 27.9524 63.477 41.3796 52.4691Z" fill="#FF6075"/>
    <path fill-rule="evenodd" clip-rule="evenodd" d="M38.4394 45.0424C38.4394 45.0424 38.5611 46.3853 38.0743 47.5044C38.0743 47.5044 38.6828 49.3967 40.3257 47.7893C40.3257 47.7893 40.7111 47.423 40.5691 46.1818C40.5691 46.1818 41.6035 47.2195 41.8672 47.7486C42.1309 48.3183 44.5445 48.6438 43.3681 46.487C43.3681 46.487 42.5974 45.5511 41.8266 45.1441C41.8266 45.1441 43.003 45.7952 43.7332 45.5104C44.4837 45.2458 45.8629 44.0047 44.0374 43.6181C44.0374 43.6181 42.5771 43.4146 42.07 43.4553C41.5427 43.496 43.5506 43.2721 44.6865 42.3362C45.802 41.4409 45.3558 41.095 45.295 40.6677C45.2544 40.2607 44.6054 39.8131 43.8955 40.3625C43.1856 40.9119 41.7049 42.3565 41.3195 42.5396C41.3195 42.5396 41.1573 42.1937 41.7658 41.4409C42.3742 40.688 43.3478 39.3248 42.8205 38.7754C42.3337 38.2463 41.2181 37.9818 40.8936 38.6533C40.5285 39.3655 40.1229 41.156 39.7578 41.5223C39.7578 41.5223 39.8186 40.4846 38.7436 40.0776C37.6686 39.691 37.3847 40.8712 37.5064 41.2781C37.6484 41.6647 38.3177 42.4989 37.9729 43.3942C36.4111 44.8796 34.3828 43.4756 33.6121 44.5947C33.2673 45.1238 33.531 46.426 34.5045 46.3446C34.5045 46.3446 36.3908 45.7545 37.405 45.3679C37.405 45.3679 38.2163 45.2051 38.4394 45.0424Z" fill="#F7F7F7"/>
</svg>
