<svg width="18" height="18" viewBox="0 0 18 18" fill="none" xmlns="http://www.w3.org/2000/svg">
    <path d="M12.1117 14.1523C12.4772 14.1523 12.7734 13.856 12.7734 13.4906V10.513C12.7734 10.2617 12.6311 10.0322 12.4061 9.92042C12.1811 9.80872 11.9122 9.83392 11.7119 9.98572L10.6532 10.7884C10.362 11.0091 10.3049 11.4242 10.5257 11.7154C10.7458 12.0057 11.1589 12.0634 11.45 11.845V13.4906C11.45 13.856 11.7463 14.1523 12.1117 14.1523ZM17.0991 12.0427C17.0991 12.5874 17.0145 13.1241 16.8476 13.6379C16.7568 13.9176 16.4974 14.0954 16.2184 14.0954C16.1507 14.0954 16.0818 14.0849 16.0139 14.0629C15.6664 13.95 15.4761 13.5768 15.5889 13.2292C15.7129 12.8476 15.7757 12.4484 15.7757 12.0427C15.7757 9.92652 14.0541 8.20482 11.9379 8.20482C10.664 8.20482 9.48636 8.82872 8.76866 9.87802C8.96846 10.9441 9.12566 11.9312 9.12566 12.3735C9.12566 12.9293 8.89387 13.4322 8.52137 13.793C9.17477 15.0706 10.4839 15.8805 11.9379 15.8805C12.5812 15.8805 13.2174 15.7185 13.7776 15.4118C14.0981 15.2363 14.5002 15.3539 14.6757 15.6745C14.8511 15.995 14.7335 16.3972 14.413 16.5726C13.6586 16.9856 12.8027 17.2039 11.9379 17.2039C9.96466 17.2039 8.18987 16.0947 7.31967 14.349C7.25527 14.3552 7.19006 14.3586 7.12396 14.3586C6.42716 14.3586 5.79376 14.0034 5.42986 13.4084C5.41856 13.3899 5.40816 13.371 5.39876 13.3515L2.56996 7.51022C2.46526 7.38512 2.30937 7.31163 2.14477 7.31163H0.821367C0.455967 7.31163 0.159668 7.01532 0.159668 6.64992C0.159668 6.28442 0.455967 5.98822 0.821367 5.98822H2.14477C2.75257 5.98822 3.32527 6.28422 3.67677 6.78012C3.69787 6.80992 3.71646 6.84143 3.73246 6.87433L6.57326 12.7406C6.69676 12.9256 6.90066 13.0353 7.12396 13.0353C7.49166 13.0353 7.80227 12.7322 7.80227 12.3736C7.80227 11.7621 7.28696 9.04743 6.82626 7.02873C6.78766 6.85973 6.81696 6.68233 6.90786 6.53473C6.93806 6.48563 7.66526 5.32502 9.14916 4.74422C9.48946 4.61092 9.87326 4.77892 10.0065 5.11922C10.1397 5.45952 9.97176 5.84342 9.63146 5.97652C8.89186 6.26602 8.40896 6.75782 8.18336 7.03083C8.26076 7.37862 8.35087 7.79533 8.44387 8.24223C9.37737 7.38203 10.6037 6.88973 11.9067 6.88203C11.8417 6.55623 11.7853 6.28233 11.7673 6.21163C11.6646 5.87033 11.8514 5.50703 12.1918 5.39353C12.5385 5.27803 12.9132 5.46533 13.0287 5.81203C13.0422 5.85243 13.0732 5.94563 13.2912 7.06183C13.9579 7.24323 14.5713 7.55492 15.1022 7.96822L14.4689 4.48492C14.3996 4.25372 14.2705 4.04873 14.0926 3.88703L10.4262 2.18333C9.58786 1.79383 8.65626 1.58792 7.73196 1.58792H0.821367C0.455967 1.58792 0.159668 1.29173 0.159668 0.926226C0.159668 0.560826 0.455967 0.264526 0.821367 0.264526H7.73196C8.84756 0.264526 9.97206 0.513025 10.9838 0.983125L14.7326 2.72512C14.7823 2.74812 14.8289 2.77723 14.8713 2.81183C15.2995 3.16003 15.6038 3.62513 15.7516 4.15683C15.7569 4.17623 15.7614 4.19582 15.765 4.21552L17.0222 11.1302C17.027 11.1564 17.0297 11.1823 17.0313 11.2082C17.0757 11.48 17.0991 11.7586 17.0991 12.0427Z" fill="#2BCB4E"/>
</svg>
