<svg width="20" height="17" viewBox="0 0 20 17" fill="none" xmlns="http://www.w3.org/2000/svg">
    <path fill-rule="evenodd" clip-rule="evenodd" d="M10.5934 4.70826C10.3916 5.03733 9.98163 5.19276 9.59913 5.08493C9.42306 5.03539 9.26981 4.93436 9.1513 4.78694C9.13721 4.76897 9.1241 4.751 9.10079 4.7153C9.0901 4.6983 9.08039 4.68106 9.05828 4.63953C9.05003 4.62204 9.04201 4.6048 9.03643 4.59071C9.0323 4.58149 9.02914 4.57226 9.02671 4.56497C9.01943 4.54603 9.01287 4.52709 9.00389 4.49649C8.55994 2.93321 7.13024 1.80709 5.42271 1.80709C2.86033 1.80709 1.87117 3.42573 1.87117 5.74501C1.87117 7.53584 3.526 9.70796 4.6718 11.0106C6.01917 12.5433 7.66477 14.0563 9.31207 15.2883C9.62584 15.5229 10.064 15.5229 10.3777 15.2883C11.1716 14.6948 11.9383 14.0468 12.6684 13.3829C13.0173 13.0657 13.5686 13.08 13.8989 13.4149C14.2294 13.7498 14.2144 14.279 13.8654 14.5962C13.0946 15.2976 12.2854 15.98 11.447 16.607C10.9885 16.95 10.4263 17.136 9.8449 17.136C9.26326 17.136 8.70129 16.95 8.24253 16.6073C6.50221 15.3063 4.76481 13.7073 3.34167 12.0889C1.87846 10.4249 0.130371 8.01986 0.130371 5.74501C0.130371 4.19364 0.501942 2.61192 1.68126 1.4836C2.6811 0.526744 4.03381 0.135986 5.42271 0.135986C7.13291 0.135986 8.59831 0.815258 9.64406 2.116C9.72031 2.2112 9.79366 2.30859 9.8636 2.40816C9.93694 2.30616 10.0137 2.20659 10.0933 2.10969C11.1379 0.836629 12.5753 0.135986 14.2668 0.135986C15.6557 0.135986 17.0082 0.526744 18.0083 1.4836C19.1876 2.61192 19.5592 4.19364 19.5592 5.74501C19.5592 7.96594 17.8869 10.266 16.4737 11.9034C16.3076 12.0957 16.063 12.206 15.8029 12.206C15.5996 12.206 15.4044 12.1382 15.248 12.0139C14.8796 11.7208 14.8278 11.1908 15.1331 10.837C16.2323 9.56346 17.8184 7.48193 17.8184 5.74501C17.8184 3.42573 16.8292 1.80709 14.2668 1.80709C13.1269 1.80709 12.2018 2.25953 11.4893 3.10977C11.1656 3.49592 10.8353 4.04331 10.6723 4.53826C10.6677 4.55186 10.6631 4.56497 10.659 4.57517C10.6529 4.59193 10.6458 4.60869 10.6296 4.6422C10.6196 4.66284 10.6082 4.683 10.6014 4.69417C10.599 4.69903 10.5963 4.70364 10.5934 4.70826Z" fill="#9D9E9E"/>
</svg>
