<svg width="26" height="24" viewBox="0 0 26 24" fill="none" xmlns="http://www.w3.org/2000/svg">
    <path d="M22.2547 3.88484C21.7033 3.3374 21.0481 2.90304 20.3266 2.60666C19.6052 2.31028 18.8317 2.15771 18.0505 2.15771C17.2693 2.15771 16.4959 2.31028 15.7744 2.60666C15.053 2.90304 14.3977 3.3374 13.8463 3.88484L13 4.73304L12.1537 3.88484C11.6023 3.3374 10.947 2.90304 10.2256 2.60666C9.50415 2.31028 8.73066 2.15771 7.94949 2.15771C7.16832 2.15771 6.39483 2.31028 5.67338 2.60666C4.95194 2.90304 4.29672 3.3374 3.74531 3.88484C1.41515 6.19021 1.27226 10.0832 4.20695 13.0411L13 21.7405L21.7931 13.0411C24.7277 10.0832 24.5848 6.19021 22.2547 3.88484Z" stroke="white" stroke-width="3" stroke-linecap="round" stroke-linejoin="round"/>
</svg>
