<svg width="18" height="17" viewBox="0 0 18 17" fill="none" xmlns="http://www.w3.org/2000/svg">
    <path fill-rule="evenodd" clip-rule="evenodd" d="M10.4121 10.8873H8.34252V16.3368C8.34252 16.7785 7.99887 17.1362 7.57509 17.1362H5.21622C3.70904 17.1362 2.48286 15.8586 2.48286 14.2878V8.67242L2.15379 9.01485C1.85386 9.32644 1.36814 9.32619 1.0687 9.01364C0.769502 8.70108 0.770231 8.19472 1.06992 7.88265L7.96026 0.715935C7.97046 0.705249 7.98114 0.694807 7.99207 0.68485C8.78306 -0.049065 9.97379 -0.0463936 10.7616 0.690921C10.773 0.701364 10.7837 0.712049 10.7934 0.722492L17.6216 7.88532C17.9201 8.19837 17.9186 8.70472 17.618 9.01582C17.4737 9.16494 17.2804 9.24848 17.0771 9.24848C16.8724 9.24848 16.6771 9.16397 16.5329 9.01218L16.2062 8.66951V10.873C16.2062 11.3145 15.8628 11.6727 15.439 11.6727C15.0153 11.6727 14.6716 11.3145 14.6716 10.873V7.05961L9.7251 1.87048C9.52232 1.68931 9.22724 1.68882 9.02713 1.86562L4.01747 7.07588V14.2878C4.01747 14.9768 4.55516 15.537 5.21622 15.537H6.8079V10.0878C6.8079 9.64628 7.15154 9.28807 7.57509 9.28807H11.1793C11.6031 9.28807 11.9468 9.64628 11.9468 10.0878V15.537H13.4729C14.1339 15.537 14.6716 14.9768 14.6716 14.2878C14.6716 13.8463 15.0153 13.4883 15.439 13.4883C15.8626 13.4883 16.2062 13.8463 16.2062 14.2878C16.2062 15.8586 14.98 17.1362 13.4729 17.1362H11.1793C10.7558 17.1362 10.4121 16.7783 10.4121 16.3368V10.8873Z" fill="#2BCB4E"/>
</svg>
