<svg width="20" height="21" viewBox="0 0 20 21" fill="none" xmlns="http://www.w3.org/2000/svg">
<path d="M17.5004 10.9175C17.3693 12.336 16.837 13.6878 15.9656 14.8148C15.0943 15.9418 13.92 16.7973 12.5802 17.2813C11.2403 17.7652 9.79039 17.8576 8.39999 17.5476C7.00959 17.2375 5.73624 16.5379 4.72893 15.5306C3.72162 14.5233 3.02202 13.25 2.712 11.8596C2.40197 10.4692 2.49434 9.01923 2.97829 7.6794C3.46224 6.33958 4.31777 5.16529 5.44475 4.29395C6.57174 3.42261 7.92357 2.89024 9.34207 2.75916C8.51158 3.88271 8.11195 5.26703 8.21585 6.66033C8.31975 8.05364 8.92029 9.36337 9.90824 10.3513C10.8962 11.3393 12.2059 11.9398 13.5992 12.0437C14.9925 12.1476 16.3769 11.748 17.5004 10.9175V10.9175Z" stroke="#2BCB4E" stroke-width="1.5" stroke-linecap="round" stroke-linejoin="round"/>
</svg>
