<svg width="24" height="28" viewBox="0 0 24 28" fill="none" xmlns="http://www.w3.org/2000/svg">
    <g clip-path="url(#clip0)">
        <path d="M6.74173 27.0508L7.227 23.9685L6.14605 23.9434H0.984375L4.57147 1.19886C4.58261 1.1302 4.61879 1.06618 4.67168 1.02071C4.72457 0.975247 4.7923 0.950195 4.86282 0.950195H13.5661C16.4555 0.950195 18.4494 1.55145 19.4905 2.73818C19.9786 3.29489 20.2894 3.87666 20.4397 4.51688C20.5974 5.18865 20.6002 5.99125 20.4462 6.97014L20.4351 7.04158V7.66881L20.9231 7.94531C21.3341 8.16336 21.6608 8.41296 21.9113 8.69874C22.3288 9.17473 22.5988 9.77969 22.7129 10.4969C22.8308 11.2346 22.7918 12.1123 22.5988 13.1061C22.3761 14.2492 22.0161 15.2448 21.5299 16.0594C21.0827 16.8101 20.513 17.4327 19.8366 17.9151C19.1908 18.3735 18.4235 18.7215 17.5559 18.9441C16.7153 19.1631 15.7568 19.2735 14.7055 19.2735H14.0282C13.5439 19.2735 13.0734 19.448 12.7041 19.7607C12.3339 20.0798 12.089 20.5159 12.0138 20.9929L11.9628 21.2703L11.1054 26.7029L11.0665 26.9024C11.0563 26.9655 11.0386 26.997 11.0127 27.0184C10.9895 27.0378 10.9561 27.0508 10.9236 27.0508H6.74173Z" fill="#253B80"/>
        <path d="M21.3836 7.11401C21.3576 7.2801 21.3279 7.4499 21.2945 7.62434C20.1468 13.5172 16.2201 15.5529 11.205 15.5529H8.65154C8.03823 15.5529 7.52141 15.9983 7.42584 16.6032L6.11849 24.8946L5.74828 27.2448C5.68611 27.6419 5.9923 28.0001 6.39314 28.0001H10.922C11.4583 28.0001 11.9139 27.6104 11.9983 27.0815L12.0429 26.8514L12.8956 21.4401L12.9503 21.1432C13.0338 20.6125 13.4903 20.2228 14.0266 20.2228H14.704C19.0918 20.2228 22.5267 18.4413 23.5307 13.2861C23.9501 11.1326 23.7329 9.33438 22.6232 8.06971C22.2873 7.68836 21.8707 7.37196 21.3836 7.11401Z" fill="#179BD7"/>
        <path d="M20.1849 6.63511C20.0095 6.58408 19.8286 6.53769 19.643 6.49593C19.4565 6.45511 19.2653 6.41892 19.0686 6.38738C18.3802 6.27603 17.6258 6.22314 16.8177 6.22314H9.99604C9.8281 6.22314 9.66851 6.26119 9.52562 6.32985C9.21108 6.48109 8.97726 6.77893 8.92066 7.14358L7.46949 16.3349L7.42773 16.6031C7.5233 15.9981 8.04012 15.5528 8.65343 15.5528H11.2069C16.222 15.5528 20.1487 13.5161 21.2964 7.62421C21.3308 7.44977 21.3595 7.27997 21.3855 7.11389C21.0951 6.95986 20.7805 6.82811 20.4419 6.71584C20.3584 6.688 20.2721 6.66109 20.1849 6.63511Z" fill="#222D65"/>
        <path d="M8.92041 7.14358C8.97701 6.77893 9.21083 6.48109 9.52538 6.33077C9.66919 6.26211 9.82786 6.22407 9.9958 6.22407H16.8174C17.6256 6.22407 18.3799 6.27696 19.0684 6.3883C19.2651 6.41985 19.4562 6.45603 19.6427 6.49686C19.8283 6.53861 20.0092 6.58501 20.1846 6.63604C20.2718 6.66202 20.3581 6.68893 20.4425 6.71583C20.7812 6.8281 21.0958 6.96079 21.3862 7.11388C21.7276 4.9362 21.3834 3.45349 20.2059 2.11088C18.9079 0.632799 16.565 0 13.5671 0H4.86382C4.25143 0 3.72905 0.445372 3.63441 1.05126L0.00926821 24.0297C-0.0621768 24.4843 0.288553 24.8944 0.746915 24.8944H6.12014L7.46924 16.3349L8.92041 7.14358Z" fill="#253B80"/>
    </g>
    <defs>
        <clipPath id="clip0">
            <rect width="24" height="28" fill="white"/>
        </clipPath>
    </defs>
</svg>

