<svg width="13" height="13" viewBox="0 0 13 13" fill="none" xmlns="http://www.w3.org/2000/svg">
    <g opacity="0.3">
        <path d="M11.9163 9.16497V10.79C11.9169 10.9408 11.886 11.0901 11.8256 11.2284C11.7651 11.3666 11.6765 11.4907 11.5653 11.5926C11.4542 11.6946 11.3229 11.7723 11.18 11.8206C11.0371 11.8689 10.8857 11.8869 10.7355 11.8733C9.06865 11.6922 7.46758 11.1226 6.06087 10.2104C4.75211 9.37875 3.64251 8.26915 2.81087 6.96039C1.89544 5.54729 1.32575 3.93843 1.14795 2.26414C1.13442 2.11435 1.15222 1.96338 1.20022 1.82085C1.24823 1.67832 1.32539 1.54734 1.42678 1.43627C1.52818 1.32519 1.6516 1.23644 1.78917 1.17567C1.92675 1.1149 2.07547 1.08345 2.22587 1.0833H3.85087C4.11374 1.08072 4.36859 1.17381 4.56791 1.34522C4.76722 1.51663 4.89741 1.75467 4.9342 2.01497C5.00279 2.53501 5.12999 3.04561 5.31337 3.53705C5.38625 3.73093 5.40202 3.94163 5.35882 4.1442C5.31562 4.34676 5.21525 4.5327 5.06962 4.67997L4.3817 5.36789C5.15279 6.72397 6.27561 7.84679 7.6317 8.61789L8.31962 7.92997C8.46689 7.78434 8.65283 7.68397 8.85539 7.64077C9.05796 7.59757 9.26866 7.61334 9.46253 7.68622C9.95397 7.8696 10.4646 7.9968 10.9846 8.06539C11.2477 8.10251 11.488 8.23504 11.6598 8.43778C11.8316 8.64052 11.9229 8.89932 11.9163 9.16497Z" stroke="#333333" stroke-width="1.5" stroke-linecap="round" stroke-linejoin="round"/>
    </g>
</svg>
