<svg width="17" height="18" viewBox="0 0 17 18" fill="none" xmlns="http://www.w3.org/2000/svg">
    <path d="M0.0178223 4.62716V2.67516C0.0178223 1.58046 0.908322 0.690063 2.00292 0.690063H4.02112C4.38662 0.690063 4.68282 0.986263 4.68282 1.35176C4.68282 1.71726 4.38662 2.01346 4.02112 2.01346H2.00292C1.63812 2.01346 1.34122 2.31036 1.34122 2.67516V4.62716C1.34122 4.99266 1.04502 5.28886 0.679521 5.28886C0.314021 5.28886 0.0178223 4.99266 0.0178223 4.62716ZM14.9721 0.690063H12.954C12.5885 0.690063 12.2923 0.986263 12.2923 1.35176C12.2923 1.71726 12.5885 2.01346 12.954 2.01346H14.9721C15.3369 2.01346 15.6338 2.31036 15.6338 2.67516V4.62716C15.6338 4.99266 15.93 5.28886 16.2955 5.28886C16.661 5.28886 16.9572 4.99266 16.9572 4.62716V2.67516C16.9572 1.58046 16.0668 0.690063 14.9721 0.690063ZM4.02112 16.3061H2.00292C1.63812 16.3061 1.34122 16.0092 1.34122 15.6444V13.6924C1.34122 13.3269 1.04502 13.0307 0.679521 13.0307C0.314021 13.0307 0.0178223 13.3269 0.0178223 13.6924V15.6444C0.0178223 16.739 0.908322 17.6295 2.00292 17.6295H4.02112C4.38662 17.6295 4.68282 17.3333 4.68282 16.9678C4.68282 16.6023 4.38662 16.3061 4.02112 16.3061ZM16.2955 13.0307C15.93 13.0307 15.6338 13.3269 15.6338 13.6924V15.6444C15.6338 16.0092 15.3369 16.3061 14.9721 16.3061H12.954C12.5885 16.3061 12.2923 16.6023 12.2923 16.9678C12.2923 17.3333 12.5885 17.6295 12.954 17.6295H14.9721C16.0668 17.6295 16.9572 16.739 16.9572 15.6444V13.6924C16.9572 13.3269 16.661 13.0307 16.2955 13.0307ZM4.67152 4.16346H12.3697C13.458 4.16346 14.3435 5.04887 14.3435 6.13727V12.2479C14.3435 13.3362 13.458 14.2218 12.3697 14.2218H4.67152C3.58322 14.2218 2.69772 13.3362 2.69772 12.2479V6.13727C2.69772 5.04887 3.58322 4.16346 4.67152 4.16346ZM13.0201 12.2479V10.315L11.1847 8.13197L8.13042 11.7071C8.00932 11.8487 7.83412 11.9328 7.64792 11.9386C7.46122 11.9446 7.28152 11.8713 7.15192 11.7374L6.32592 10.8839L4.49042 12.8721C4.54802 12.8889 4.60872 12.8984 4.67172 12.8984H12.3697C12.7283 12.8984 13.0201 12.6066 13.0201 12.2479ZM4.02112 6.13727V11.4295L5.82852 9.47187C5.95172 9.33827 6.12482 9.26117 6.30682 9.25897C6.48952 9.25777 6.66362 9.32987 6.79012 9.46067L7.59682 10.2942L10.6856 6.67867C10.8113 6.53157 10.9952 6.44676 11.1887 6.44676H11.1913C11.3858 6.44756 11.5701 6.53396 11.6952 6.68266L13.0201 8.25857V6.13727C13.0201 5.77867 12.7283 5.48687 12.3697 5.48687H4.67152C4.31292 5.48687 4.02112 5.77867 4.02112 6.13727ZM6.63482 7.96867C7.00032 7.96867 7.29652 7.67247 7.29652 7.30697C7.29652 6.94157 7.00032 6.64537 6.63482 6.64537C6.26932 6.64537 5.97312 6.94157 5.97312 7.30697C5.97312 7.67247 6.26932 7.96867 6.63482 7.96867Z" fill="#2BCB4E"/>
</svg>

