<svg width="13" height="15" viewBox="0 0 13 15" fill="none" xmlns="http://www.w3.org/2000/svg">
    <g opacity="0.3">
        <path d="M11.375 6.42861C11.375 10.1786 6.5 13.3929 6.5 13.3929C6.5 13.3929 1.625 10.1786 1.625 6.42861C1.625 5.14988 2.13861 3.92353 3.05285 3.01934C3.96709 2.11515 5.20707 1.60718 6.5 1.60718C7.79293 1.60718 9.03291 2.11515 9.94715 3.01934C10.8614 3.92353 11.375 5.14988 11.375 6.42861Z" stroke="#333333" stroke-width="1.5" stroke-linecap="round" stroke-linejoin="round"/>
        <path d="M6.5 8.0357C7.39746 8.0357 8.125 7.31616 8.125 6.42855C8.125 5.54095 7.39746 4.82141 6.5 4.82141C5.60254 4.82141 4.875 5.54095 4.875 6.42855C4.875 7.31616 5.60254 8.0357 6.5 8.0357Z" stroke="#333333" stroke-width="1.5" stroke-linecap="round" stroke-linejoin="round"/>
    </g>
</svg>
