<svg width="19" height="18" viewBox="0 0 19 18" fill="none" xmlns="http://www.w3.org/2000/svg">
    <path d="M17.8102 11.9276C18.1898 11.9276 18.4974 11.62 18.4974 11.2404V6.39569C18.4974 5.00829 17.4639 3.85849 16.1266 3.67359V3.27619C16.1266 2.54029 15.8353 1.848 15.3065 1.3268C14.7757 0.803695 14.0506 0.510389 13.3163 0.520389C13.0792 0.523789 12.8419 0.558292 12.6106 0.623192L1.41197 3.67109C1.40887 3.67189 1.40598 3.67309 1.40308 3.67409C1.38888 3.67809 1.37507 3.6828 1.36127 3.6876C1.35317 3.6905 1.34497 3.69339 1.33707 3.69649C1.32487 3.70139 1.31278 3.7069 1.30098 3.7126C1.29178 3.7169 1.28257 3.72099 1.27367 3.72559C1.26387 3.73079 1.25437 3.7365 1.24487 3.7421C1.23467 3.748 1.22448 3.7539 1.21468 3.7605C1.20668 3.7656 1.19937 3.7712 1.19167 3.7767C1.18107 3.7844 1.17047 3.7919 1.16047 3.8001C1.15357 3.8056 1.14718 3.81149 1.14058 3.81729C1.13068 3.82599 1.12067 3.83469 1.11117 3.84399C1.10457 3.85059 1.09828 3.85749 1.09188 3.86439C1.08338 3.87339 1.07497 3.8822 1.06697 3.8918C1.06007 3.9001 1.05348 3.90879 1.04688 3.91749C1.04048 3.92609 1.03368 3.93439 1.02768 3.94329C1.02058 3.95349 1.01397 3.96419 1.00737 3.97499C1.00267 3.98269 0.997574 3.9904 0.993174 3.9984C0.986574 4.0101 0.980673 4.02219 0.974873 4.03409C0.971173 4.04189 0.967172 4.04959 0.963672 4.05739C0.958372 4.06949 0.95387 4.0817 0.94917 4.0942C0.94597 4.1028 0.942575 4.11129 0.939775 4.11999C0.935975 4.13129 0.932973 4.14289 0.929873 4.15439C0.926973 4.16499 0.92407 4.17549 0.92167 4.18619C0.91947 4.19609 0.917777 4.2062 0.915977 4.2163C0.913877 4.229 0.911768 4.24189 0.910068 4.25489C0.909168 4.26349 0.908669 4.27239 0.907969 4.28099C0.906769 4.29549 0.905974 4.31 0.905674 4.3246C0.905674 4.3278 0.905273 4.33089 0.905273 4.33409V16.7723C0.905273 17.1519 1.21287 17.4595 1.59247 17.4595H15.7486C17.2643 17.4595 18.4974 16.2264 18.4974 14.7107C18.4974 14.3313 18.1898 14.0235 17.8102 14.0235C17.4306 14.0235 17.123 14.3313 17.123 14.7107C17.123 15.4686 16.5064 16.0851 15.7486 16.0851H2.27968V5.0213H15.7486C16.5064 5.0213 17.123 5.63789 17.123 6.39569V11.2404C17.123 11.62 17.4306 11.9276 17.8102 11.9276ZM12.9742 1.94859C12.9761 1.94799 12.9778 1.94749 12.9797 1.94689C13.0973 1.91389 13.2173 1.8962 13.3362 1.8946C13.7045 1.8884 14.0713 2.03899 14.3419 2.30569C14.6064 2.56649 14.7522 2.91119 14.7522 3.27619V3.64689H6.73397L12.9742 1.94859ZM13.423 9.56639C13.2682 9.088 12.8298 8.76649 12.3323 8.76649H11.1489L10.7925 7.6676C10.6382 7.1946 10.1997 6.8767 9.70127 6.8767C9.20297 6.8767 8.76448 7.1946 8.60968 7.6688L8.25377 8.76649H7.07037C6.57287 8.76649 6.13447 9.088 5.97957 9.56639C5.82377 10.0479 5.99138 10.5682 6.39688 10.8615L7.34638 11.5483L6.98407 12.6584C6.82987 13.1308 6.99628 13.6453 7.39848 13.9384C7.80178 14.2325 8.34437 14.2334 8.74877 13.9409L9.70127 13.2516L10.654 13.941C10.8556 14.0868 11.0914 14.1596 11.3274 14.1596C11.5647 14.1596 11.8021 14.0859 12.0044 13.9384C12.4064 13.6453 12.5728 13.131 12.4187 12.6584L12.0563 11.5483L13.0058 10.8615C13.4112 10.5682 13.5789 10.0479 13.423 9.56639ZM11.1156 10.5325C10.7108 10.8254 10.5429 11.3408 10.6976 11.8151L10.8947 12.4187L10.3749 12.0425C10.1777 11.8999 9.94477 11.8245 9.70127 11.8245C9.45787 11.8245 9.22497 11.8999 9.02777 12.0426L8.50797 12.4187L8.70487 11.8151C8.85977 11.3408 8.69177 10.8253 8.28707 10.5325L7.74567 10.1409H8.41107C8.92157 10.1409 9.34978 9.839 9.50268 9.3705L9.70127 8.75809L9.90018 9.3717C10.0527 9.839 10.4811 10.1409 10.9916 10.1409H11.6569L11.1156 10.5325Z" fill="#2BCB4E"/>
</svg>
