<svg width="18" height="17" viewBox="0 0 18 17" fill="none" xmlns="http://www.w3.org/2000/svg">
<path fill-rule="evenodd" clip-rule="evenodd" d="M6.13331 8.88057C5.02636 7.9395 4.38158 6.56469 4.38158 5.09953C4.38158 2.36277 6.60809 0.136017 9.34485 0.136017C12.0816 0.136017 14.3081 2.36302 14.3081 5.09953C14.3081 7.83629 12.0814 10.0628 9.34485 10.0628C7.28469 10.0628 4.82965 10.5645 3.23286 11.9678C2.69396 12.4413 2.38772 13.126 2.38772 13.8431V15.0547C2.38772 15.3515 2.62961 15.5931 2.92638 15.5931H15.7633C16.0601 15.5931 16.3017 15.3515 16.3017 15.0547V13.8431C16.3017 13.1257 15.9955 12.4413 15.4566 11.9678C14.9721 11.5418 14.4038 11.2074 13.8159 10.9461C13.4283 10.7736 13.2517 10.3151 13.4241 9.92753C13.5963 9.53993 14.0548 9.36362 14.4424 9.5358C15.1739 9.86075 15.8729 10.2792 16.4751 10.8084C17.3475 11.5751 17.8449 12.682 17.8449 13.8431V15.0547C17.8449 16.2027 16.9113 17.136 15.7633 17.136H2.92638C1.77839 17.136 0.844849 16.2027 0.844849 15.0547V13.8431C0.844849 12.682 1.34198 11.5751 2.21432 10.8084C3.30863 9.84715 4.72182 9.22179 6.13331 8.88057ZM5.92445 5.09953C5.92445 6.98556 7.45906 8.51969 9.34485 8.51969C11.2306 8.51969 12.765 6.98532 12.765 5.09953C12.765 3.21375 11.2309 1.67913 9.34485 1.67913C7.45882 1.67913 5.92445 3.2135 5.92445 5.09953Z" fill="#9D9E9E"/>
</svg>
