<svg width="34" height="34" viewBox="0 0 34 34" fill="none" xmlns="http://www.w3.org/2000/svg">
    <rect width="34" height="34" rx="8" fill="#F6F6F6"/>
    <path d="M18.4697 12.5303C18.7626 12.8232 19.2374 12.8232 19.5303 12.5303L20.25 11.8107V22C20.25 22.4142 20.5858 22.75 21 22.75C21.4142 22.75 21.75 22.4142 21.75 22V11.8107L22.4697 12.5303C22.7626 12.8232 23.2374 12.8232 23.5303 12.5303C23.8232 12.2374 23.8232 11.7626 23.5303 11.4697L21.5303 9.46967C21.2374 9.17678 20.7626 9.17678 20.4697 9.46967L18.4697 11.4697C18.1768 11.7626 18.1768 12.2374 18.4697 12.5303ZM13.75 22.1893L14.4697 21.4697C14.7626 21.1768 15.2374 21.1768 15.5303 21.4697C15.8232 21.7626 15.8232 22.2374 15.5303 22.5303L13.5303 24.5303C13.2374 24.8232 12.7626 24.8232 12.4697 24.5303L10.4697 22.5303C10.1768 22.2374 10.1768 21.7626 10.4697 21.4697C10.7626 21.1768 11.2374 21.1768 11.5303 21.4697L12.25 22.1893V12C12.25 11.5858 12.5858 11.25 13 11.25C13.4142 11.25 13.75 11.5858 13.75 12V22.1893Z" fill="#8D8D8D"/>
</svg>
