<svg width="20" height="21" viewBox="0 0 20 21" fill="none" xmlns="http://www.w3.org/2000/svg">
<g clip-path="url(#clip0_497_17325)">
<path d="M9.99967 14.4259C12.3009 14.4259 14.1663 12.5604 14.1663 10.2592C14.1663 7.95801 12.3009 6.09253 9.99967 6.09253C7.69849 6.09253 5.83301 7.95801 5.83301 10.2592C5.83301 12.5604 7.69849 14.4259 9.99967 14.4259Z" stroke="#2BCB4E" stroke-width="1.5" stroke-linecap="round" stroke-linejoin="round"/>
<path d="M10 1.09253V2.7592" stroke="#2BCB4E" stroke-width="1.5" stroke-linecap="round" stroke-linejoin="round"/>
<path d="M10 17.7592V19.4258" stroke="#2BCB4E" stroke-width="1.5" stroke-linecap="round" stroke-linejoin="round"/>
<path d="M3.5166 3.77588L4.69993 4.95921" stroke="#2BCB4E" stroke-width="1.5" stroke-linecap="round" stroke-linejoin="round"/>
<path d="M15.2998 15.5591L16.4831 16.7424" stroke="#2BCB4E" stroke-width="1.5" stroke-linecap="round" stroke-linejoin="round"/>
<path d="M0.833008 10.2592H2.49967" stroke="#2BCB4E" stroke-width="1.5" stroke-linecap="round" stroke-linejoin="round"/>
<path d="M17.5 10.2592H19.1667" stroke="#2BCB4E" stroke-width="1.5" stroke-linecap="round" stroke-linejoin="round"/>
<path d="M3.5166 16.7424L4.69993 15.5591" stroke="#2BCB4E" stroke-width="1.5" stroke-linecap="round" stroke-linejoin="round"/>
<path d="M15.2998 4.95921L16.4831 3.77588" stroke="#2BCB4E" stroke-width="1.5" stroke-linecap="round" stroke-linejoin="round"/>
</g>
<defs>
<clipPath id="clip0_497_17325">
<rect width="20" height="20" fill="white" transform="translate(0 0.259155)"/>
</clipPath>
</defs>
</svg>
