<svg width="15" height="16" viewBox="0 0 15 16" fill="none" xmlns="http://www.w3.org/2000/svg">
    <g clip-path="url(#clip0)">
        <path d="M1.42859 10.5001V6.78578C1.42859 5.30815 2.06826 3.89103 3.20687 2.84619C4.34548 1.80134 5.88977 1.21436 7.50002 1.21436C9.11026 1.21436 10.6546 1.80134 11.7932 2.84619C12.9318 3.89103 13.5714 5.30815 13.5714 6.78578V10.5001" stroke="#333333" stroke-width="1.5" stroke-linecap="round" stroke-linejoin="round"/>
        <path d="M13.5714 11.2143C13.5714 11.5931 13.4293 11.9565 13.1763 12.2244C12.9232 12.4923 12.5801 12.6428 12.2222 12.6428H11.5476C11.1898 12.6428 10.8466 12.4923 10.5936 12.2244C10.3406 11.9565 10.1984 11.5931 10.1984 11.2143V9.07139C10.1984 8.69251 10.3406 8.32915 10.5936 8.06124C10.8466 7.79333 11.1898 7.64282 11.5476 7.64282H13.5714V11.2143ZM1.42859 11.2143C1.42859 11.5931 1.57074 11.9565 1.82376 12.2244C2.07679 12.4923 2.41996 12.6428 2.7778 12.6428H3.4524C3.81023 12.6428 4.15341 12.4923 4.40643 12.2244C4.65946 11.9565 4.8016 11.5931 4.8016 11.2143V9.07139C4.8016 8.69251 4.65946 8.32915 4.40643 8.06124C4.15341 7.79333 3.81023 7.64282 3.4524 7.64282H1.42859V11.2143Z" stroke="#333333" stroke-width="1.5" stroke-linecap="round" stroke-linejoin="round"/>
        <path d="M3.57141 12.6428L5.35713 14.7857H8.92855" stroke="#333333" stroke-width="1.5" stroke-linecap="round"/>
    </g>
    <defs>
        <clipPath id="clip0">
            <rect width="15" height="15" fill="white" transform="translate(0 0.5)"/>
        </clipPath>
    </defs>
</svg>
