<svg width="37" height="43" viewBox="0 0 37 43" fill="none" xmlns="http://www.w3.org/2000/svg">
<path fill-rule="evenodd" clip-rule="evenodd" d="M12.8638 2.83838C12.0664 2.83838 11.2432 2.88999 10.4457 2.9416C9.59684 2.99322 8.72221 3.03193 7.8733 3.03193C7.06298 3.03193 6.2398 2.99322 5.41662 2.95451C4.63202 2.90289 3.83457 2.86419 3.03711 2.86419C3.03711 2.86419 3.03711 2.86419 3.03711 2.87709C3.03711 5.65127 3.14001 8.45126 3.2429 11.2254C3.30722 12.8641 3.3458 14.5029 3.37153 16.1416C3.39725 17.3028 3.41011 18.4641 3.4487 19.6254L3.80884 30.5286C6.35556 28.5286 9.48108 26.9802 12.5809 26.1286L12.4522 19.6383C12.4522 16.8383 12.5551 14.0254 12.658 11.2254C12.7609 8.45126 12.8638 5.65127 12.8638 2.87709C12.8638 2.86419 12.8638 2.85128 12.8638 2.83838Z" fill="#F7F7F7"/>
<path fill-rule="evenodd" clip-rule="evenodd" d="M26.2406 32.8773C27.1539 38.8515 31.2055 36.2192 31.4113 42.9031C38.6784 37.2515 38.4726 26.916 28.543 26.5289C32.3502 25.1354 32.5174 21.6773 32.2087 17.6774C31.9901 14.9161 30.7424 3.44515 34.2795 0C23.4495 0.24516 17.7001 16.4516 22.6907 25.6386C11.3333 22.258 -1.69609 32.7999 0.181796 36.6837C4.45205 31.3547 17.7259 39.8579 26.2406 32.8773Z" fill="white"/>
<path fill-rule="evenodd" clip-rule="evenodd" d="M24.3759 28.1676C24.3759 28.1676 24.453 29.0192 24.1443 29.7289C24.1443 29.7289 24.5302 30.9289 25.5721 29.9096C25.5721 29.9096 25.8164 29.6773 25.7264 28.8902C25.7264 28.8902 26.3824 29.5483 26.5496 29.8837C26.7168 30.245 28.2474 30.4515 27.5014 29.0838C27.5014 29.0838 27.0126 28.4902 26.5239 28.2321C26.5239 28.2321 27.2699 28.645 27.7329 28.4644C28.2088 28.2967 29.0834 27.5096 27.9258 27.2644C27.9258 27.2644 26.9998 27.1354 26.6782 27.1612C26.3438 27.187 27.6171 27.045 28.3374 26.4515C29.0449 25.8838 28.7619 25.6644 28.7233 25.3934C28.6976 25.1354 28.286 24.8515 27.8358 25.1999C27.3856 25.5483 26.4467 26.4644 26.2023 26.5805C26.2023 26.5805 26.0994 26.3612 26.4853 25.8838C26.8711 25.4063 27.4885 24.5418 27.1541 24.1934C26.8454 23.858 26.138 23.6902 25.9322 24.116C25.7007 24.5676 25.4434 25.7031 25.2119 25.9354C25.2119 25.9354 25.2505 25.2773 24.5688 25.0192C23.8871 24.7741 23.707 25.5225 23.7842 25.7805C23.8742 26.0257 24.2987 26.5547 24.08 27.1225C23.0896 28.0644 21.8034 27.1741 21.3147 27.8838C21.096 28.2192 21.2632 29.045 21.8806 28.9934C21.8806 28.9934 23.0768 28.6192 23.7199 28.3741C23.7199 28.3741 24.2344 28.2708 24.3759 28.1676Z" fill="#F7F7F7"/>
</svg>
