<svg width="12" height="13" viewBox="0 0 12 13" fill="none" xmlns="http://www.w3.org/2000/svg">
    <path d="M1.5 3.25H2.5H10.5" stroke="#FF6075" stroke-width="1.5" stroke-linecap="round" stroke-linejoin="round"/>
    <path d="M4 3.24992V2.16659C4 1.87927 4.10536 1.60372 4.29289 1.40055C4.48043 1.19739 4.73478 1.08325 5 1.08325H7C7.26522 1.08325 7.51957 1.19739 7.70711 1.40055C7.89464 1.60372 8 1.87927 8 2.16659V3.24992M9.5 3.24992V10.8333C9.5 11.1206 9.39464 11.3961 9.20711 11.5993C9.01957 11.8024 8.76522 11.9166 8.5 11.9166H3.5C3.23478 11.9166 2.98043 11.8024 2.79289 11.5993C2.60536 11.3961 2.5 11.1206 2.5 10.8333V3.24992H9.5Z" stroke="#FF6075" stroke-width="1.5" stroke-linecap="round" stroke-linejoin="round"/>
    <path d="M5 5.95825V9.20825" stroke="#FF6075" stroke-width="1.5" stroke-linecap="round" stroke-linejoin="round"/>
    <path d="M7 5.95825V9.20825" stroke="#FF6075" stroke-width="1.5" stroke-linecap="round" stroke-linejoin="round"/>
</svg>
