<svg width="16" height="17" viewBox="0 0 16 17" fill="none" xmlns="http://www.w3.org/2000/svg">
    <path d="M13.3334 11.8334H14.6667V9.60671C14.667 9.25641 14.5982 8.9095 14.4644 8.58577C14.3306 8.26205 14.1343 7.96787 13.8867 7.72004L12.6667 6.50004H9.33337V11.8334H10M6.66671 11.8334H9.33337V3.83337H1.33337V11.8334H3.33337H6.66671Z" stroke="#2BCB4E" stroke-width="1.5" stroke-linecap="round" stroke-linejoin="round"/>
    <path d="M5.00004 13.8333C5.92052 13.8333 6.66671 13.0871 6.66671 12.1667C6.66671 11.2462 5.92052 10.5 5.00004 10.5C4.07957 10.5 3.33337 11.2462 3.33337 12.1667C3.33337 13.0871 4.07957 13.8333 5.00004 13.8333Z" stroke="#2BCB4E" stroke-width="1.5" stroke-linecap="round" stroke-linejoin="round"/>
    <path d="M11.6667 13.8333C12.5871 13.8333 13.3333 13.0871 13.3333 12.1667C13.3333 11.2462 12.5871 10.5 11.6667 10.5C10.7462 10.5 10 11.2462 10 12.1667C10 13.0871 10.7462 13.8333 11.6667 13.8333Z" stroke="#2BCB4E" stroke-width="1.5" stroke-linecap="round" stroke-linejoin="round"/>
</svg>
