<svg width="36" height="26" viewBox="0 0 36 26" fill="none" xmlns="http://www.w3.org/2000/svg">
    <path d="M22.707 0.5C15.745 0.5 10.207 6.11708 10.207 13C10.207 19.962 15.8241 25.5 22.707 25.5C29.5899 25.5 35.207 19.8829 35.207 13C35.207 6.11708 29.5899 0.5 22.707 0.5ZM22.707 17.6677C20.1754 17.6677 18.0393 15.5316 18.0393 13C18.0393 10.4684 20.1754 8.33227 22.707 8.33227C25.2387 8.33227 27.3747 10.4684 27.3747 13C27.2957 15.5316 25.2387 17.6677 22.707 17.6677Z" fill="#8B3FFD"/>
    <path d="M10.1266 4.13928V22.3354H5.69621L0 4.13928H10.1266Z" fill="#8B3FFD"/>
</svg>
